# xmcd CD database file
#
# Track frame offsets:
#	151
#	12199
#	22583
#	34392
#	46593
#	58251
#	69619
#	84082
#	95239
#	110319
#	125251
#	136674
#	149764
#	160156
#	171160
#	180862
#	197569
#
# Disc length: 2770 seconds
#
# Revision: 0
# Processed by: cddbd v1.4PL0 Copyright (c) Steve Scherf et al.
# Submitted via: CDex 1.40Release
#
DISCID=d70ad011
DTITLE=Willie Nelson - Legendary Willie Nelson [CD1)
DYEAR=2003
DGENRE=Country
TTITLE0=Funny How Time Slips Away
TTITLE1=Healing Hands of Time
TTITLE2=Once More With Feeling
TTITLE3=You Ought to Hear Me Cry
TTITLE4=One in a Row
TTITLE5=She's Not for You
TTITLE6=Yesterday's Wine
TTITLE7=Pretty Paper
TTITLE8=Sitting on the Dock of the Bay (w/ Waylon Jennings)
TTITLE9=It's Not Supposed to be That Way
TTITLE10=One Day at a Time
TTITLE11=My Own Peculiar Way
TTITLE12=December Day
TTITLE13=Night Life
TTITLE14=Are You Sure
TTITLE15=Wake Me When It's Over
TTITLE16=Bring Me Sunshine
EXTD=YEAR: 2003 ID3G: 2
EXTT0=
EXTT1=
EXTT2=
EXTT3=
EXTT4=
EXTT5=
EXTT6=
EXTT7=
EXTT8=
EXTT9=
EXTT10=
EXTT11=
EXTT12=
EXTT13=
EXTT14=
EXTT15=
EXTT16=
PLAYORDER=
